<svg xmlns="http://www.w3.org/2000/svg" width="500" height="217">
  <path stroke-linecap="round" stroke-width="3" stroke="black" fill="none" d="
  M103 11
  a10 10 0 0 1 10 0
  l76 44
  a10 10 0 0 1 5 8
  l0 88
  a10 10 0 0 1 -5 8
  l-76 44
  a10 10 0 0 1 -10 0
  l-76 -44
  a10 10 0 0 1 -5 -8
  l0 -88
  a10 10 0 0 1 5 -8
  l76 -44
  "></path>

  <path stroke-linecap="round" stroke-width="3" stroke="black" fill="none" d="
  M109 20
  l75 44
  "></path>

  <path stroke-linecap="round" stroke-width="3" stroke="black" fill="none" d="
  M109 194
  l75 -44
  "></path>

  <path stroke-linecap="round" stroke-width="3" stroke="black" fill="none" d="
  M32 64
  l0 88
  "></path>

  <style>
    .big { 
        font: 80px san-serif;
    }
  </style>

  <text x="220" y="130" class="big">Molly2d</text>

</svg>